<svg width="1450" height="1000" viewBox="0 0 1450 1000" fill="none" xmlns="http://www.w3.org/2000/svg">
<rect width="1450" height="1000" fill="#345ECC"/>
<path fill-rule="evenodd" clip-rule="evenodd" d="M721.5 247C684.773 247 655 276.773 655 313.5C655 350.227 684.773 380 721.5 380H837.5C810.714 380 789 401.714 789 428.5C789 455.286 810.714 477 837.5 477H1132.5C1159.29 477 1181 455.286 1181 428.5C1181 401.714 1159.29 380 1132.5 380H1248.5C1285.23 380 1315 350.227 1315 313.5C1315 276.773 1285.23 247 1248.5 247H721.5ZM178 257C134.922 257 100 291.922 100 335C100 378.078 134.922 413 178 413H235C210.147 413 190 433.147 190 458C190 482.853 210.147 503 235 503H392C416.853 503 437 482.853 437 458C437 433.147 416.853 413 392 413H513C556.078 413 591 378.078 591 335C591 291.922 556.078 257 513 257H178ZM280 602.5C280 565.773 309.773 536 346.5 536H460.5C497.227 536 527 565.773 527 602.5C527 639.227 497.227 669 460.5 669H346.5C309.773 669 280 639.227 280 602.5ZM668.5 503C632.325 503 603 532.325 603 568.5C603 604.675 632.325 634 668.5 634H719C694.699 634 675 653.699 675 678C675 702.301 694.699 722 719 722H838C862.301 722 882 702.301 882 678C882 653.699 862.301 634 838 634H861.5C897.675 634 927 604.675 927 568.5C927 532.325 897.675 503 861.5 503H668.5ZM1180.5 634C1147.64 634 1121 660.639 1121 693.5C1121 726.361 1147.64 753 1180.5 753H1291.5C1324.36 753 1351 726.361 1351 693.5C1351 660.639 1324.36 634 1291.5 634H1180.5Z" fill="#2ACF3B"/>
</svg>
