<svg width="1920" height="1080" viewBox="0 0 1920 1080" fill="none" xmlns="http://www.w3.org/2000/svg">
<g clip-path="url(#clip0_402_381)">
<circle cx="219" cy="31" r="5" fill="#6017B3"/>
<circle cx="353" cy="79" r="5" fill="#2358DE"/>
<circle cx="147" cy="192" r="5" fill="#6017B3"/>
<circle cx="36" cy="126" r="5" fill="#6017B3"/>
<circle cx="125" cy="44" r="5" fill="#2358DE"/>
<circle cx="244" cy="146" r="5" fill="#6017B3"/>
<circle cx="152" cy="104" r="5" fill="#2358DE"/>
<circle cx="277.5" cy="86.5" r="12.5" fill="#6017B3"/>
<circle cx="416.052" cy="537.053" r="5" transform="rotate(139.182 416.052 537.053)" fill="#6017B3"/>
<circle cx="57.3149" cy="627.435" r="5" transform="rotate(139.182 57.3149 627.435)" fill="#2358DE"/>
<circle cx="139.349" cy="407.264" r="5" transform="rotate(139.182 139.349 407.264)" fill="#6017B3"/>
<circle cx="5.05225" cy="488.905" r="5" transform="rotate(139.182 5.05225 488.905)" fill="#2358DE"/>
<circle cx="266.495" cy="384.654" r="5" transform="rotate(139.182 266.495 384.654)" fill="#6017B3"/>
<circle cx="252.741" cy="504.888" r="5" transform="rotate(139.182 252.741 504.888)" fill="#2358DE"/>
<circle cx="96.0103" cy="505.481" r="5" transform="rotate(139.182 96.0103 505.481)" fill="#6017B3"/>
<circle cx="193.088" cy="477.129" r="5" transform="rotate(139.182 193.088 477.129)" fill="#2358DE"/>
<circle cx="109.551" cy="572.407" r="12.5" transform="rotate(139.182 109.551 572.407)" fill="#6017B3"/>
<circle cx="1055.47" cy="297.467" r="5" transform="rotate(95.6351 1055.47 297.467)" fill="#6017B3"/>
<circle cx="863.467" cy="442.467" r="5" transform="rotate(95.6351 863.467 442.467)" fill="#2358DE"/>
<circle cx="727.467" cy="500.467" r="5" transform="rotate(95.6351 727.467 500.467)" fill="#2358DE"/>
<circle cx="826.467" cy="293.467" r="5" transform="rotate(95.6351 826.467 293.467)" fill="#6017B3"/>
<circle cx="948.467" cy="298.467" r="5" transform="rotate(95.6351 948.467 298.467)" fill="#2358DE"/>
<circle cx="762.467" cy="394.467" r="5" transform="rotate(95.6351 762.467 394.467)" fill="#2358DE"/>
<circle cx="1553.97" cy="484.408" r="5" transform="rotate(159.24 1553.97 484.408)" fill="#6017B3"/>
<circle cx="1583.37" cy="573.415" r="5" transform="rotate(159.24 1583.37 573.415)" fill="#6017B3"/>
<circle cx="1470.24" cy="417.447" r="5" transform="rotate(159.24 1470.24 417.447)" fill="#6017B3"/>
<circle cx="1464.45" cy="560.987" r="5" transform="rotate(159.24 1464.45 560.987)" fill="#2358DE"/>
<circle cx="967.667" cy="402.667" r="12.5" transform="rotate(95.6351 967.667 402.667)" fill="#6017B3"/>
<circle cx="630.534" cy="151.535" r="32.5" transform="rotate(95.6351 630.534 151.535)" fill="#1B0F75"/>
<circle cx="514.454" cy="824.524" r="22.5" transform="rotate(34.7742 514.454 824.524)" fill="#6017B3"/>
<circle cx="690.609" cy="725.959" r="5" transform="rotate(34.7742 690.609 725.959)" fill="#6017B3"/>
<circle cx="723.766" cy="964.264" r="5" transform="rotate(34.7742 723.766 964.264)" fill="#2358DE"/>
<circle cx="518.865" cy="998.641" r="5" transform="rotate(34.7742 518.865 998.641)" fill="#6017B3"/>
<circle cx="575.607" cy="924.029" r="5" transform="rotate(34.7742 575.607 924.029)" fill="#6017B3"/>
<circle cx="639.38" cy="819.904" r="5" transform="rotate(34.7742 639.38 819.904)" fill="#2358DE"/>
<circle cx="632.661" cy="1029.11" r="5" transform="rotate(34.7742 632.661 1029.11)" fill="#2358DE"/>
<circle cx="739.742" cy="853.872" r="12.5" transform="rotate(34.7742 739.742 853.872)" fill="#6017B3"/>
<circle cx="1821.62" cy="651.684" r="5" transform="rotate(63.8825 1821.62 651.684)" fill="#6017B3"/>
<circle cx="1734.66" cy="876.022" r="5" transform="rotate(63.8825 1734.66 876.022)" fill="#2358DE"/>
<circle cx="1538.92" cy="806.38" r="5" transform="rotate(63.8825 1538.92 806.38)" fill="#6017B3"/>
<circle cx="1649.54" cy="996.911" r="5" transform="rotate(63.8825 1649.54 996.911)" fill="#2358DE"/>
<circle cx="1624.79" cy="768.794" r="5" transform="rotate(63.8825 1624.79 768.794)" fill="#6017B3"/>
<circle cx="1731.16" cy="708.843" r="5" transform="rotate(63.8825 1731.16 708.843)" fill="#2358DE"/>
<circle cx="1480.07" cy="895.992" r="5" transform="rotate(63.8825 1480.07 895.992)" fill="#6017B3"/>
<circle cx="1802.32" cy="787.344" r="12.5" transform="rotate(63.8825 1802.32 787.344)" fill="#6017B3"/>
<circle cx="1836.68" cy="904.673" r="5" transform="rotate(-98.3453 1836.68 904.673)" fill="#2358DE"/>
<circle cx="1908.58" cy="1040.32" r="5" transform="rotate(-98.3453 1908.58 1040.32)" fill="#6017B3"/>
<circle cx="1788.99" cy="1064.94" r="5" transform="rotate(-98.3453 1788.99 1064.94)" fill="#2358DE"/>
<circle cx="1745.18" cy="968.468" r="12.5" transform="rotate(-98.3453 1745.18 968.468)" fill="#6017B3"/>
<circle cx="1383.49" cy="751.215" r="32.5" transform="rotate(63.8825 1383.49 751.215)" fill="#1B0F75"/>
<circle cx="1293.88" cy="757.388" r="5" transform="rotate(-179.745 1293.88 757.388)" fill="#6017B3"/>
<circle cx="1131.52" cy="579.828" r="5" transform="rotate(-179.745 1131.52 579.828)" fill="#2358DE"/>
<circle cx="1061.02" cy="449.865" r="5" transform="rotate(-179.745 1061.02 449.865)" fill="#2358DE"/>
<circle cx="421.277" cy="423.714" r="5" transform="rotate(176.002 421.277 423.714)" fill="#2358DE"/>
<circle cx="559.498" cy="268.597" r="5" transform="rotate(176.002 559.498 268.597)" fill="#6017B3"/>
<circle cx="341.336" cy="299.338" r="5" transform="rotate(176.002 341.336 299.338)" fill="#2358DE"/>
<circle cx="561.984" cy="362.302" r="5" transform="rotate(176.002 561.984 362.302)" fill="#6017B3"/>
<circle cx="577.47" cy="483.418" r="5" transform="rotate(176.002 577.47 483.418)" fill="#2358DE"/>
<circle cx="498.64" cy="180.336" r="5" transform="rotate(176.002 498.64 180.336)" fill="#6017B3"/>
<circle cx="451.699" cy="316.106" r="5" transform="rotate(176.002 451.699 316.106)" fill="#2358DE"/>
<circle cx="927.382" cy="539.149" r="5" transform="rotate(59.8382 927.382 539.149)" fill="#6017B3"/>
<circle cx="810.31" cy="744.704" r="5" transform="rotate(140.205 810.31 744.704)" fill="#2358DE"/>
<circle cx="831.689" cy="538.042" r="5" transform="rotate(140.205 831.689 538.042)" fill="#6017B3"/>
<circle cx="888.515" cy="612.591" r="5" transform="rotate(140.205 888.515 612.591)" fill="#6017B3"/>
<circle cx="772.042" cy="639.63" r="5" transform="rotate(140.205 772.042 639.63)" fill="#2358DE"/>
<circle cx="1282.85" cy="650.952" r="5" transform="rotate(-179.745 1282.85 650.952)" fill="#2358DE"/>
<circle cx="1226.72" cy="342.859" r="5" transform="rotate(-179.745 1226.72 342.859)" fill="#6017B3"/>
<circle cx="1180.91" cy="679.838" r="12.5" transform="rotate(-179.745 1180.91 679.838)" fill="#6017B3"/>
<circle cx="166.679" cy="792.119" r="22.5" transform="rotate(-50.3842 166.679 792.119)" fill="#6017B3"/>
<circle cx="241.938" cy="648.659" r="5" transform="rotate(-50.3842 241.938 648.659)" fill="#6017B3"/>
<circle cx="364.358" cy="576.04" r="5" transform="rotate(-50.3842 364.358 576.04)" fill="#2358DE"/>
<circle cx="320.054" cy="806.783" r="5" transform="rotate(-50.3842 320.054 806.783)" fill="#6017B3"/>
<circle cx="438.915" cy="703.959" r="5" transform="rotate(-50.3842 438.915 703.959)" fill="#2358DE"/>
<circle cx="198.433" cy="850.207" r="5" transform="rotate(-50.3842 198.433 850.207)" fill="#6017B3"/>
<circle cx="192.014" cy="729.36" r="5" transform="rotate(-50.3842 192.014 729.36)" fill="#2358DE"/>
<circle cx="346.468" cy="702.728" r="5" transform="rotate(-50.3842 346.468 702.728)" fill="#6017B3"/>
<circle cx="255.452" cy="746.819" r="5" transform="rotate(-50.3842 255.452 746.819)" fill="#2358DE"/>
<circle cx="240.516" cy="1048.29" r="5" transform="rotate(172.85 240.516 1048.29)" fill="#6017B3"/>
<circle cx="101.584" cy="1017.35" r="5" transform="rotate(172.85 101.584 1017.35)" fill="#2358DE"/>
<circle cx="291.917" cy="879.583" r="5" transform="rotate(172.85 291.917 879.583)" fill="#6017B3"/>
<circle cx="201.397" cy="937.3" r="5" transform="rotate(172.85 201.397 937.3)" fill="#6017B3"/>
<circle cx="297.909" cy="967.522" r="5" transform="rotate(172.85 297.909 967.522)" fill="#2358DE"/>
<circle cx="175.563" cy="1000.51" r="12.5" transform="rotate(172.85 175.563 1000.51)" fill="#6017B3"/>
<circle cx="56.7591" cy="928.759" r="32.5" transform="rotate(-50.3842 56.7591 928.759)" fill="#1B0F75"/>
<circle cx="1628.83" cy="222.829" r="5" transform="rotate(-119.986 1628.83 222.829)" fill="#6017B3"/>
<circle cx="1699.83" cy="143.829" r="5" transform="rotate(-119.986 1699.83 143.829)" fill="#2358DE"/>
<circle cx="1449.83" cy="141.829" r="5" transform="rotate(-119.986 1449.83 141.829)" fill="#6017B3"/>
<circle cx="1849.83" cy="139.829" r="5" transform="rotate(-119.986 1849.83 139.829)" fill="#2358DE"/>
<circle cx="1786.83" cy="303.829" r="5" transform="rotate(-119.986 1786.83 303.829)" fill="#2358DE"/>
<circle cx="1507.83" cy="48.8295" r="5" transform="rotate(-119.986 1507.83 48.8295)" fill="#6017B3"/>
<circle cx="1584.83" cy="155.829" r="5" transform="rotate(-119.986 1584.83 155.829)" fill="#2358DE"/>
<circle cx="1884.22" cy="426.818" r="22.5" transform="rotate(135.482 1884.22 426.818)" fill="#6017B3"/>
<circle cx="1726.36" cy="506.896" r="5" transform="rotate(135.482 1726.36 506.896)" fill="#6017B3"/>
<circle cx="1632.07" cy="457.99" r="5" transform="rotate(135.482 1632.07 457.99)" fill="#2358DE"/>
<circle cx="1672.54" cy="566.3" r="5" transform="rotate(135.482 1672.54 566.3)" fill="#2358DE"/>
<circle cx="1742.07" cy="213.074" r="12.5" transform="rotate(-119.986 1742.07 213.074)" fill="#6017B3"/>
<circle cx="1054.06" cy="116.06" r="5" transform="rotate(-48.1596 1054.06 116.06)" fill="#6017B3"/>
<circle cx="1273.43" cy="62.2128" r="5" transform="rotate(-48.1596 1273.43 62.2128)" fill="#2358DE"/>
<circle cx="1324.02" cy="203.483" r="5" transform="rotate(-48.1596 1324.02 203.483)" fill="#2358DE"/>
<circle cx="1148.55" cy="194.776" r="5" transform="rotate(-48.1596 1148.55 194.776)" fill="#2358DE"/>
<circle cx="1220.82" cy="123.948" r="12.5" transform="rotate(-48.1596 1220.82 123.948)" fill="#6017B3"/>
<circle cx="1112.11" cy="849.75" r="5" transform="rotate(-57.8962 1112.11 849.75)" fill="#2358DE"/>
<circle cx="996.858" cy="627.893" r="5" transform="rotate(-57.8962 996.858 627.893)" fill="#6017B3"/>
<circle cx="1185.86" cy="980.431" r="5" transform="rotate(-57.8962 1185.86 980.431)" fill="#2358DE"/>
<circle cx="918.127" cy="761.259" r="5" transform="rotate(-57.8962 918.127 761.259)" fill="#6017B3"/>
<circle cx="1106.19" cy="635.615" r="5" transform="rotate(-57.8962 1106.19 635.615)" fill="#6017B3"/>
<circle cx="1047.68" cy="753.743" r="5" transform="rotate(-57.8962 1047.68 753.743)" fill="#2358DE"/>
<circle cx="1113.53" cy="1010.87" r="32.5" transform="rotate(-57.8962 1113.53 1010.87)" fill="#1B0F75"/>
<circle cx="1180.91" cy="679.838" r="12.5" transform="rotate(-179.745 1180.91 679.838)" fill="#6017B3"/>
<circle cx="1470.65" cy="1036.14" r="5" transform="rotate(152.345 1470.65 1036.14)" fill="#6017B3"/>
<circle cx="1244.06" cy="955.237" r="5" transform="rotate(152.345 1244.06 955.237)" fill="#2358DE"/>
<circle cx="1348.3" cy="842.527" r="5" transform="rotate(152.345 1348.3 842.527)" fill="#6017B3"/>
<circle cx="1411.09" cy="947.251" r="5" transform="rotate(152.345 1411.09 947.251)" fill="#2358DE"/>
<circle cx="1228.75" cy="844.464" r="5" transform="rotate(152.345 1228.75 844.464)" fill="#2358DE"/>
<circle cx="1334.52" cy="1020.49" r="12.5" transform="rotate(152.345 1334.52 1020.49)" fill="#6017B3"/>
<circle cx="1247.79" cy="1016.39" r="5" transform="rotate(-85.8061 1247.79 1016.39)" fill="#6017B3"/>
<circle cx="1334.52" cy="1020.49" r="12.5" transform="rotate(152.345 1334.52 1020.49)" fill="#6017B3"/>
<circle cx="1112.11" cy="849.75" r="5" transform="rotate(-57.8962 1112.11 849.75)" fill="#2358DE"/>
<circle cx="1185.86" cy="980.431" r="5" transform="rotate(-57.8962 1185.86 980.431)" fill="#2358DE"/>
<circle cx="918.127" cy="761.259" r="5" transform="rotate(-57.8962 918.127 761.259)" fill="#6017B3"/>
<circle cx="1047.68" cy="753.743" r="5" transform="rotate(-57.8962 1047.68 753.743)" fill="#2358DE"/>
<circle cx="1113.53" cy="1010.87" r="32.5" transform="rotate(-57.8962 1113.53 1010.87)" fill="#1B0F75"/>
</g>
<defs>
<clipPath id="clip0_402_381">
<rect width="1920" height="1080" fill="white"/>
</clipPath>
</defs>
</svg>
